0.11m3min_grf.mot
version=1
nRows=10
nColumns 19
inDegrees=yes
endheader
time	1_ground_force_vx	1_ground_force_vy	1_ground_force_vz	1_ground_force_px	1_ground_force_py	1_ground_force_pz	1_ground_torque_x	1_ground_torque_y	1_ground_torque_z	2_ground_force_vx	2_ground_force_vy	2_ground_force_vz	2_ground_force_px	2_ground_force_py	2_ground_force_pz	2_ground_torque_x	2_ground_torque_y	2_ground_torque_z
            3.751500	           -0.409227	           -4.691313	            0.989757	           -0.233013	            0.005581	           -0.255695	           -1.017341	           -0.109257	           -0.485321	           -0.761527	            3.490421	            1.608358	           -0.232311	            0.006130	           -0.833667	           -1.371285	           -0.042023	           -0.206904
            3.752000	           -0.408819	           -5.052434	            1.125779	           -0.233013	            0.005581	           -0.255695	           -1.023135	            0.001910	           -0.541212	           -0.198122	            3.125159	            1.325237	           -0.232311	            0.006130	           -0.833667	           -1.410456	            0.374567	           -0.431606
            3.752500	           -0.729331	           -4.692751	            1.311545	           -0.233013	            0.005581	           -0.255695	           -1.049854	            0.001522	           -0.498449	            2.092589	            4.246036	           -0.830490	           -0.232311	            0.006130	           -0.833667	           -1.392737	            0.667736	           -0.449419
            3.753000	           -0.362392	           -4.512807	            1.403119	           -0.233013	            0.005581	           -0.255695	           -1.034883	            0.001374	           -0.407663	            4.949507	            4.263887	           -2.943470	           -0.232311	            0.006130	           -0.833667	           -1.674954	            0.807904	           -0.279141
            3.753500	           -0.362910	           -5.412956	            1.124119	           -0.233013	            0.005581	           -0.255695	           -1.060424	           -0.099754	           -0.539587	            5.834071	            5.742463	           -3.548658	           -0.232311	            0.006130	           -0.833667	           -2.087796	            0.674410	           -0.373689
            3.754000	           -0.408900	           -5.232503	            1.079150	           -0.233013	            0.005581	           -0.255695	           -1.077530	           -0.201135	           -0.617133	            5.266761	            7.211946	           -3.073881	           -0.232311	            0.006130	           -0.833667	           -2.481714	            0.493989	           -0.543814
            3.754500	           -0.592404	           -4.511476	            1.082697	           -0.233013	            0.005581	           -0.255695	           -1.096360	           -0.229679	           -0.455870	            3.898679	            9.964914	           -1.843317	           -0.232311	            0.006130	           -0.833667	           -2.650833	            0.502966	           -0.581409
            3.755000	           -0.546381	           -4.872195	            1.126893	           -0.233013	            0.005581	           -0.255695	           -1.004290	           -0.090906	           -0.472335	            3.612112	           11.617049	           -0.664081	           -0.284396	            0.005085	           -0.593404	           -0.011735	           -0.037741	            0.002157
            3.755500	           -0.592422	           -3.790609	            1.131645	           -0.233013	            0.005581	           -0.255695	           -0.854586	           -0.063571	           -0.380592	            4.453622	           12.170866	           -0.193187	           -0.284830	            0.005029	           -0.578214	            0.023459	            0.064110	           -0.001018
            3.756000	           -0.179691	           -2.709525	            1.272826	           -0.233013	            0.005581	           -0.255695	           -0.748510	           -0.100249	           -0.382256	            6.558256	           13.101563	           -0.847792	           -0.293066	            0.005012	           -0.581653	           -0.030133	           -0.060197	            0.003895
